<?xml version="1.0" encoding="UTF-8" standalone="no"?>
<svg
   xmlns:dc="http://purl.org/dc/elements/1.1/"
   xmlns:cc="http://creativecommons.org/ns#"
   xmlns:rdf="http://www.w3.org/1999/02/22-rdf-syntax-ns#"
   xmlns:svg="http://www.w3.org/2000/svg"
   xmlns="http://www.w3.org/2000/svg"
   xmlns:xlink="http://www.w3.org/1999/xlink"
   xmlns:sodipodi="http://sodipodi.sourceforge.net/DTD/sodipodi-0.dtd"
   xmlns:inkscape="http://www.inkscape.org/namespaces/inkscape"
   width="500.79083mm"
   height="284.65036mm"
   viewBox="0 0 500.79083 284.65036"
   version="1.1"
   id="svg8"
   inkscape:version="1.0 (4035a4fb49, 2020-05-01)"
   sodipodi:docname="qss_simple.svg">
  <defs
     id="defs2">
    <marker
       inkscape:stockid="Arrow2Mend"
       orient="auto"
       refY="0"
       refX="0"
       id="marker2446"
       style="overflow:visible"
       inkscape:isstock="true">
      <path
         id="path2444"
         style="fill:#000000;fill-opacity:1;fill-rule:evenodd;stroke:#000000;stroke-width:0.625;stroke-linejoin:round;stroke-opacity:1"
         d="M 8.7185878,4.0337352 -2.2072895,0.01601326 8.7185884,-4.0017078 c -1.7454984,2.3720609 -1.7354408,5.6174519 -6e-7,8.035443 z"
         transform="scale(-0.6)" />
    </marker>
    <marker
       inkscape:isstock="true"
       style="overflow:visible"
       id="marker2436"
       refX="0"
       refY="0"
       orient="auto"
       inkscape:stockid="Arrow2Mend">
      <path
         transform="scale(-0.6)"
         d="M 8.7185878,4.0337352 -2.2072895,0.01601326 8.7185884,-4.0017078 c -1.7454984,2.3720609 -1.7354408,5.6174519 -6e-7,8.035443 z"
         style="fill:#000000;fill-opacity:1;fill-rule:evenodd;stroke:#000000;stroke-width:0.625;stroke-linejoin:round;stroke-opacity:1"
         id="path2434" />
    </marker>
    <marker
       inkscape:stockid="Arrow2Mstart"
       orient="auto"
       refY="0"
       refX="0"
       id="marker2426"
       style="overflow:visible"
       inkscape:isstock="true">
      <path
         id="path2424"
         style="fill:#000000;fill-opacity:1;fill-rule:evenodd;stroke:#000000;stroke-width:0.625;stroke-linejoin:round;stroke-opacity:1"
         d="M 8.7185878,4.0337352 -2.2072895,0.01601326 8.7185884,-4.0017078 c -1.7454984,2.3720609 -1.7354408,5.6174519 -6e-7,8.035443 z"
         transform="scale(0.6)" />
    </marker>
    <marker
       inkscape:isstock="true"
       style="overflow:visible"
       id="marker2416"
       refX="0"
       refY="0"
       orient="auto"
       inkscape:stockid="Arrow2Mstart">
      <path
         transform="scale(0.6)"
         d="M 8.7185878,4.0337352 -2.2072895,0.01601326 8.7185884,-4.0017078 c -1.7454984,2.3720609 -1.7354408,5.6174519 -6e-7,8.035443 z"
         style="fill:#000000;fill-opacity:1;fill-rule:evenodd;stroke:#000000;stroke-width:0.625;stroke-linejoin:round;stroke-opacity:1"
         id="path2414" />
    </marker>
    <marker
       inkscape:stockid="Arrow2Lend"
       orient="auto"
       refY="0"
       refX="0"
       id="Arrow2Lend"
       style="overflow:visible"
       inkscape:isstock="true">
      <path
         id="path1343"
         style="fill:#000000;fill-opacity:1;fill-rule:evenodd;stroke:#000000;stroke-width:0.625;stroke-linejoin:round;stroke-opacity:1"
         d="M 8.7185878,4.0337352 -2.2072895,0.01601326 8.7185884,-4.0017078 c -1.7454984,2.3720609 -1.7354408,5.6174519 -6e-7,8.035443 z"
         transform="matrix(-1.1,0,0,-1.1,-1.1,0)" />
    </marker>
    <marker
       inkscape:stockid="Arrow2Lstart"
       orient="auto"
       refY="0"
       refX="0"
       id="Arrow2Lstart"
       style="overflow:visible"
       inkscape:isstock="true">
      <path
         id="path1340"
         style="fill:#000000;fill-opacity:1;fill-rule:evenodd;stroke:#000000;stroke-width:0.625;stroke-linejoin:round;stroke-opacity:1"
         d="M 8.7185878,4.0337352 -2.2072895,0.01601326 8.7185884,-4.0017078 c -1.7454984,2.3720609 -1.7354408,5.6174519 -6e-7,8.035443 z"
         transform="matrix(1.1,0,0,1.1,1.1,0)" />
    </marker>
    <g
       id="g187">
      <symbol
         overflow="visible"
         id="symbol2510">
        <path
           style="stroke:none"
           d=""
           id="path2445" />
      </symbol>
      <symbol
         overflow="visible"
         id="symbol2934">
        <path
           style="stroke:none"
           d="m 4.40625,-6.953125 c -0.0625,-0.140625 -0.09375,-0.1875 -0.265625,-0.1875 -0.15625,0 -0.1875,0.046875 -0.25,0.1875 l -3.375,6.75 C 0.46875,-0.109375 0.46875,-0.09375 0.46875,-0.078125 0.46875,0 0.53125,0 0.6875,0 h 6.921875 c 0.15625,0 0.21875,0 0.21875,-0.078125 0,-0.015625 0,-0.03125 -0.046875,-0.125 z m -0.578125,0.8125 2.6875,5.390625 h -5.375 z m 0,0"
           id="path6261" />
      </symbol>
      <symbol
         overflow="visible"
         id="symbol6765">
        <path
           style="stroke:none"
           d=""
           id="path765" />
      </symbol>
      <symbol
         overflow="visible"
         id="symbol100">
        <path
           style="stroke:none"
           d="M 4.359375,-0.0625 C 5.90625,-0.640625 7.375,-2.421875 7.375,-4.34375 c 0,-1.609375 -1.0625,-2.6875 -2.546875,-2.6875 -2.140625,0 -4.34375,2.265625 -4.34375,4.59375 0,1.65625 1.125,2.65625 2.5625,2.65625 0.25,0 0.578125,-0.046875 0.96875,-0.15625 -0.03125,0.625 -0.03125,0.640625 -0.03125,0.78125 0,0.3125 0,1.09375 0.828125,1.09375 1.171875,0 1.65625,-1.828125 1.65625,-1.9375 0,-0.0625 -0.0625,-0.09375 -0.109375,-0.09375 -0.078125,0 -0.09375,0.046875 -0.125,0.109375 C 6,0.71875 5.421875,0.96875 5.078125,0.96875 c -0.46875,0 -0.609375,-0.265625 -0.71875,-1.03125 z m -1.875,-0.078125 c -0.78125,-0.3125 -1.125,-1.078125 -1.125,-1.984375 0,-0.6875 0.265625,-2.109375 1.015625,-3.171875 C 3.109375,-6.3125 4.046875,-6.78125 4.78125,-6.78125 5.765625,-6.78125 6.5,-6 6.5,-4.671875 c 0,1 -0.515625,3.34375 -2.1875,4.265625 -0.046875,-0.34375 -0.140625,-1.0625 -0.875,-1.0625 -0.53125,0 -1.015625,0.484375 -1.015625,1.015625 0,0.1875 0.0625,0.296875 0.0625,0.3125 z M 3.09375,-0.03125 c -0.140625,0 -0.453125,0 -0.453125,-0.421875 0,-0.40625 0.375,-0.796875 0.796875,-0.796875 0.421875,0 0.609375,0.234375 0.609375,0.84375 0,0.140625 -0.015625,0.15625 -0.109375,0.203125 C 3.671875,-0.09375 3.375,-0.03125 3.09375,-0.03125 Z m 0,0"
           id="path6013" />
      </symbol>
    </g>
    <g
       id="g9821">
      <symbol
         overflow="visible"
         id="symbol299">
        <path
           style="stroke:none"
           d=""
           id="path2335" />
      </symbol>
      <symbol
         overflow="visible"
         id="symbol6937">
        <path
           style="stroke:none"
           d="m 4.40625,-6.953125 c -0.0625,-0.140625 -0.09375,-0.1875 -0.265625,-0.1875 -0.15625,0 -0.1875,0.046875 -0.25,0.1875 l -3.375,6.75 C 0.46875,-0.109375 0.46875,-0.09375 0.46875,-0.078125 0.46875,0 0.53125,0 0.6875,0 h 6.921875 c 0.15625,0 0.21875,0 0.21875,-0.078125 0,-0.015625 0,-0.03125 -0.046875,-0.125 z m -0.578125,0.8125 2.6875,5.390625 h -5.375 z m 0,0"
           id="path488" />
      </symbol>
      <symbol
         overflow="visible"
         id="symbol1599">
        <path
           style="stroke:none"
           d=""
           id="path880" />
      </symbol>
      <symbol
         overflow="visible"
         id="symbol1234">
        <path
           style="stroke:none"
           d="m 2.046875,-3.984375 h 0.9375 c 0.203125,0 0.3125,0 0.3125,-0.203125 0,-0.109375 -0.109375,-0.109375 -0.28125,-0.109375 h -0.875 C 2.5,-5.71875 2.546875,-5.90625 2.546875,-5.96875 c 0,-0.171875 -0.125,-0.265625 -0.296875,-0.265625 -0.03125,0 -0.3125,0 -0.390625,0.359375 L 1.46875,-4.296875 h -0.9375 c -0.203125,0 -0.296875,0 -0.296875,0.1875 0,0.125 0.078125,0.125 0.28125,0.125 h 0.875 C 0.671875,-1.15625 0.625,-0.984375 0.625,-0.8125 0.625,-0.265625 1,0.109375 1.546875,0.109375 2.5625,0.109375 3.125,-1.34375 3.125,-1.421875 3.125,-1.53125 3.046875,-1.53125 3.015625,-1.53125 2.921875,-1.53125 2.90625,-1.5 2.859375,-1.390625 2.4375,-0.34375 1.90625,-0.109375 1.5625,-0.109375 c -0.203125,0 -0.3125,-0.125 -0.3125,-0.453125 0,-0.25 0.03125,-0.3125 0.0625,-0.484375 z m 0,0"
           id="path1498" />
      </symbol>
    </g>
  </defs>
  <sodipodi:namedview
     fit-margin-bottom="10"
     fit-margin-right="10"
     fit-margin-left="10"
     fit-margin-top="10"
     lock-margins="true"
     id="base"
     pagecolor="#ffffff"
     bordercolor="#666666"
     borderopacity="1.0"
     inkscape:pageopacity="0.0"
     inkscape:pageshadow="2"
     inkscape:zoom="0.35"
     inkscape:cx="1327.3054"
     inkscape:cy="269.56367"
     inkscape:document-units="mm"
     inkscape:current-layer="layer2"
     inkscape:document-rotation="0"
     showgrid="true"
     inkscape:showpageshadow="true"
     showborder="true"
     inkscape:snap-object-midpoints="true"
     inkscape:snap-center="true"
     inkscape:window-width="1280"
     inkscape:window-height="961"
     inkscape:window-x="-8"
     inkscape:window-y="-8"
     inkscape:window-maximized="1"
     inkscape:lockguides="true">
    <inkscape:grid
       originy="-338.25"
       originx="224.70749"
       type="xygrid"
       id="grid10"
       visible="false" />
  </sodipodi:namedview>
  <metadata
     id="metadata5">
    <rdf:RDF>
      <cc:Work
         rdf:about="">
        <dc:format>image/svg+xml</dc:format>
        <dc:type
           rdf:resource="http://purl.org/dc/dcmitype/StillImage" />
        <dc:title></dc:title>
      </cc:Work>
    </rdf:RDF>
  </metadata>
  <g
     transform="translate(224.7075,-338.25)"
     inkscape:label="Layer 1"
     inkscape:groupmode="layer"
     id="layer1" />
  <g
     transform="translate(224.7075,-338.25)"
     inkscape:groupmode="layer"
     id="layer2"
     inkscape:label="chart"
     style="display:inline">
    <text
       xml:space="preserve"
       style="font-style:normal;font-variant:normal;font-weight:normal;font-stretch:normal;font-size:10.5833px;line-height:1.25;font-family:'Times New Roman';-inkscape-font-specification:'Times New Roman, ';letter-spacing:0px;word-spacing:0px;fill:#000000;fill-opacity:1;stroke:none;stroke-width:0.264583"
       x="-127"
       y="-63.5"
       id="text2227"><tspan
         sodipodi:role="line"
         id="tspan2225"
         x="-127"
         y="-63.5"
         style="font-style:normal;font-variant:normal;font-weight:normal;font-stretch:normal;font-family:'Times New Roman';-inkscape-font-specification:'Times New Roman, ';stroke-width:0.264583" /></text>
    <rect
       y="349.25"
       x="-137.58333"
       height="232.83333"
       width="402.16666"
       id="rect2285"
       style="opacity:0.970867;fill:none;fill-opacity:0.972549;stroke:#010100;stroke-width:2;stroke-linecap:round;stroke-linejoin:round;stroke-dashoffset:12" />
    <path
       sodipodi:nodetypes="cc"
       id="path2287"
       d="M -137.58334,370.41667 H 264.58332"
       style="fill:none;stroke:#939393;stroke-width:1;stroke-linecap:butt;stroke-linejoin:miter;stroke-miterlimit:4;stroke-dasharray:none;stroke-opacity:1" />
    <path
       sodipodi:nodetypes="cc"
       style="fill:none;stroke:#939393;stroke-width:1;stroke-linecap:butt;stroke-linejoin:miter;stroke-miterlimit:4;stroke-dasharray:none;stroke-opacity:1"
       d="M -137.58334,391.58333 H 264.58332"
       id="path2289" />
    <path
       sodipodi:nodetypes="cc"
       id="path2291"
       d="M -137.58334,433.91667 H 264.58332"
       style="fill:none;stroke:#939393;stroke-width:1;stroke-linecap:butt;stroke-linejoin:miter;stroke-miterlimit:4;stroke-dasharray:none;stroke-opacity:1" />
    <path
       sodipodi:nodetypes="cc"
       style="fill:none;stroke:#939393;stroke-width:1;stroke-linecap:butt;stroke-linejoin:miter;stroke-miterlimit:4;stroke-dasharray:none;stroke-opacity:1"
       d="M -137.58334,412.75 H 264.58332"
       id="path2293" />
    <path
       sodipodi:nodetypes="cc"
       style="fill:none;stroke:#939393;stroke-width:1;stroke-linecap:butt;stroke-linejoin:miter;stroke-miterlimit:4;stroke-dasharray:none;stroke-opacity:1"
       d="M -137.58334,455.08333 H 264.58332"
       id="path2295" />
    <path
       sodipodi:nodetypes="cc"
       id="path2297"
       d="M -137.58334,476.25 H 264.58332"
       style="fill:none;stroke:#939393;stroke-width:1;stroke-linecap:butt;stroke-linejoin:miter;stroke-miterlimit:4;stroke-dasharray:none;stroke-opacity:1" />
    <path
       sodipodi:nodetypes="cc"
       style="fill:none;stroke:#939393;stroke-width:1;stroke-linecap:butt;stroke-linejoin:miter;stroke-miterlimit:4;stroke-dasharray:none;stroke-opacity:1"
       d="M -137.58334,497.41667 H 264.58332"
       id="path2299" />
    <path
       sodipodi:nodetypes="cc"
       id="path2301"
       d="M -137.58334,518.58333 H 264.58332"
       style="fill:none;stroke:#939393;stroke-width:1;stroke-linecap:butt;stroke-linejoin:miter;stroke-miterlimit:4;stroke-dasharray:none;stroke-opacity:1" />
    <path
       sodipodi:nodetypes="cc"
       style="fill:none;stroke:#939393;stroke-width:1;stroke-linecap:butt;stroke-linejoin:miter;stroke-miterlimit:4;stroke-dasharray:none;stroke-opacity:1"
       d="M -137.58334,539.75 H 264.58332"
       id="path2303" />
    <path
       sodipodi:nodetypes="cc"
       id="path2305"
       d="M -137.58334,560.91667 H 264.58332"
       style="fill:none;stroke:#939393;stroke-width:1;stroke-linecap:butt;stroke-linejoin:miter;stroke-miterlimit:4;stroke-dasharray:none;stroke-opacity:1" />
    <path
       sodipodi:nodetypes="cc"
       style="fill:none;stroke:#000000;stroke-width:0.264583px;stroke-linecap:butt;stroke-linejoin:miter;stroke-opacity:1"
       d="M 137.58332,349.25 V 582.08333"
       id="path2331" />
    <path
       id="path2366"
       d="m -157.42709,392.90626 v 18.52083"
       style="display:inline;fill:none;stroke:#000000;stroke-width:0.8;stroke-linecap:butt;stroke-linejoin:miter;stroke-miterlimit:4;stroke-dasharray:none;stroke-opacity:1;marker-start:url(#marker2416);marker-end:url(#marker2436)" />
    <g
       style="display:inline"
       inkscape:label=""
       transform="matrix(2.3352965,0,0,2.3352965,-430.47431,217.89254)"
       id="g2378">
      <g
         id="g2376">
        <g
           id="g2370"
           style="fill:#000000;fill-opacity:1">
          <use
             height="100%"
             width="100%"
             id="use2368"
             y="81.962997"
             x="91.925003"
             xlink:href="#symbol2934" />
        </g>
        <g
           id="g2374"
           style="fill:#000000;fill-opacity:1">
          <use
             height="100%"
             width="100%"
             id="use2372"
             y="81.962997"
             x="100.227"
             xlink:href="#symbol100" />
        </g>
      </g>
    </g>
    <g
       style="display:inline"
       transform="rotate(-90,26.45833,216.95834)"
       id="g2384">
      <path
         id="path2380"
         d="m -169.33333,21.166667 v 23.8125"
         style="fill:none;stroke:#000000;stroke-width:0.8;stroke-linecap:round;stroke-linejoin:miter;stroke-miterlimit:4;stroke-dasharray:none;stroke-opacity:1" />
      <path
         style="fill:none;stroke:#000000;stroke-width:0.8;stroke-linecap:round;stroke-linejoin:miter;stroke-miterlimit:4;stroke-dasharray:none;stroke-opacity:1"
         d="m -148.16667,21.166667 v 23.8125"
         id="path2382" />
    </g>
    <text
       transform="rotate(-90)"
       id="text2388"
       y="-151.24413"
       x="-534.25616"
       style="font-size:24.271px;line-height:1.25;font-family:'Times New Roman';-inkscape-font-specification:'Times New Roman, ';letter-spacing:0px;word-spacing:0px;display:inline;stroke-width:0.606775"
       xml:space="preserve"><tspan
         style="stroke-width:0.606775"
         y="-151.24413"
         x="-534.25616"
         id="tspan2386"
         sodipodi:role="line">Output</tspan></text>
    <text
       xml:space="preserve"
       style="font-size:24.271px;line-height:1.25;font-family:'Times New Roman';-inkscape-font-specification:'Times New Roman, ';letter-spacing:0px;word-spacing:0px;display:inline;stroke-width:0.606775"
       x="34.06535"
       y="612.56854"
       id="text2392"><tspan
         sodipodi:role="line"
         id="tspan2390"
         x="34.06535"
         y="612.56854"
         style="stroke-width:0.606775">Time</tspan></text>
    <path
       sodipodi:nodetypes="ccccccsccc"
       id="path2604"
       d="m -137.57373,539.75 h 63.490397 c 12.0934,-40.40669 24.18691,-66.94649 36.28029,-86.5884 12.09349,-19.64195 24.18687,-32.4953 36.2802491,-42.11088 12.0934809,-9.61549 24.1868609,-15.90778 36.2802509,-20.6149 12.09348,-4.70722 24.18686,-7.78755 36.28034,-10.09191 12.09338,-2.30446 24.18677,-3.81235 36.280253,-4.94044 12.09338,-1.12808 24.18676,-1.86626 36.27995,-2.41857 12.09418,-0.55221 24.18736,-0.91355 36.28054,-0.76572 l 84.65393,-0.98612"
       style="fill:none;stroke:#b6b6b6;stroke-width:3;stroke-linecap:round;stroke-linejoin:round;stroke-miterlimit:4;stroke-dasharray:3, 6;stroke-dashoffset:0;stroke-opacity:1" />
    <path
       transform="translate(-99.997874,174.63857)"
       id="path2396"
       d="M 31.206204,407.44477 V 174.61144"
       style="display:inline;fill:none;stroke:#42dc3c;stroke-width:2;stroke-linecap:butt;stroke-linejoin:miter;stroke-miterlimit:4;stroke-dasharray:none;stroke-opacity:1" />
    <path
       transform="translate(-99.997874,174.63857)"
       style="display:inline;fill:none;stroke:#42dc3c;stroke-width:2;stroke-linecap:butt;stroke-linejoin:miter;stroke-miterlimit:4;stroke-dasharray:none;stroke-opacity:1"
       d="M 39.143703,407.44477 V 174.61144"
       id="path2398" />
    <path
       transform="translate(-99.997874,174.63857)"
       id="path2400"
       d="M 49.727037,407.44477 V 174.61144"
       style="display:inline;fill:none;stroke:#42dc3c;stroke-width:2;stroke-linecap:butt;stroke-linejoin:miter;stroke-miterlimit:4;stroke-dasharray:none;stroke-opacity:1" />
    <path
       transform="translate(-99.997874,174.63857)"
       style="display:inline;fill:none;stroke:#42dc3c;stroke-width:2;stroke-linecap:butt;stroke-linejoin:miter;stroke-miterlimit:4;stroke-dasharray:none;stroke-opacity:1"
       d="M 62.956203,407.44477 V 174.61144"
       id="path2402" />
    <path
       transform="translate(-99.997874,174.63857)"
       id="path2404"
       d="M 77.508292,407.44476 V 174.61143"
       style="display:inline;fill:none;stroke:#42dc3c;stroke-width:2;stroke-linecap:butt;stroke-linejoin:miter;stroke-miterlimit:4;stroke-dasharray:none;stroke-opacity:1" />
    <path
       transform="translate(-99.997874,174.63857)"
       style="display:inline;fill:none;stroke:#42dc3c;stroke-width:2;stroke-linecap:butt;stroke-linejoin:miter;stroke-miterlimit:4;stroke-dasharray:none;stroke-opacity:1"
       d="M 97.352037,407.44477 V 174.61144"
       id="path2406" />
    <path
       transform="translate(-99.997874,174.63857)"
       id="path2408"
       d="M 134.3937,407.44477 V 174.61144"
       style="display:inline;fill:none;stroke:#42dc3c;stroke-width:2;stroke-linecap:butt;stroke-linejoin:miter;stroke-miterlimit:4;stroke-dasharray:none;stroke-opacity:1" />
    <path
       transform="translate(-99.997874,174.63857)"
       style="display:inline;fill:none;stroke:#42dc3c;stroke-width:2;stroke-linecap:butt;stroke-linejoin:miter;stroke-miterlimit:4;stroke-dasharray:none;stroke-opacity:1"
       d="M 237.5812,407.44477 V 174.61144"
       id="path2410" />
    <path
       transform="translate(-99.997874,174.63857)"
       sodipodi:nodetypes="cccccccccccccccccc"
       id="path2412"
       d="m -37.585462,365.11143 68.791665,1e-5 v -21.16667 h 7.937501 V 322.7781 h 10.583333 v -21.16667 h 13.229167 v -21.16666 l 14.552088,-1e-5 V 259.2781 H 97.352037 V 238.11144 H 134.3937 v -21.16667 h 103.1875 v -21.16666 h 126.99999"
       style="fill:none;stroke:#c42d18;stroke-width:3;stroke-linecap:round;stroke-linejoin:round;stroke-miterlimit:4;stroke-dasharray:none;stroke-opacity:1" />
    <ellipse
       transform="translate(-99.997874,174.63857)"
       style="opacity:0.970867;fill:#c42d18;fill-opacity:1;stroke:none;stroke-width:3;stroke-linecap:round;stroke-linejoin:round;stroke-miterlimit:4;stroke-dasharray:none;stroke-dashoffset:0;stroke-opacity:1"
       id="ellipse2768"
       ry="3.3072894"
       rx="3.4395835"
       cy="343.94476"
       cx="31.206209" />
    <ellipse
       transform="translate(-99.997874,174.63857)"
       cx="39.143707"
       cy="322.77811"
       rx="3.4395835"
       ry="3.3072894"
       id="ellipse2770"
       style="opacity:0.970867;fill:#c42d18;fill-opacity:1;stroke:none;stroke-width:3;stroke-linecap:round;stroke-linejoin:round;stroke-miterlimit:4;stroke-dasharray:none;stroke-dashoffset:0;stroke-opacity:1" />
    <ellipse
       transform="translate(-99.997874,174.63857)"
       style="opacity:0.970867;fill:#c42d18;fill-opacity:1;stroke:none;stroke-width:3;stroke-linecap:round;stroke-linejoin:round;stroke-miterlimit:4;stroke-dasharray:none;stroke-dashoffset:0;stroke-opacity:1"
       id="ellipse2772"
       ry="3.3072894"
       rx="3.4395835"
       cy="301.61142"
       cx="49.727043" />
    <ellipse
       transform="translate(-99.997874,174.63857)"
       cx="62.956207"
       cy="280.44476"
       rx="3.4395835"
       ry="3.3072894"
       id="ellipse2774"
       style="opacity:0.970867;fill:#c42d18;fill-opacity:1;stroke:none;stroke-width:3;stroke-linecap:round;stroke-linejoin:round;stroke-miterlimit:4;stroke-dasharray:none;stroke-dashoffset:0;stroke-opacity:1" />
    <ellipse
       transform="translate(-99.997874,174.63857)"
       style="opacity:0.970867;fill:#c42d18;fill-opacity:1;stroke:none;stroke-width:3;stroke-linecap:round;stroke-linejoin:round;stroke-miterlimit:4;stroke-dasharray:none;stroke-dashoffset:0;stroke-opacity:1"
       id="ellipse2776"
       ry="3.3072894"
       rx="3.4395835"
       cy="259.27811"
       cx="77.508293" />
    <ellipse
       transform="translate(-99.997874,174.63857)"
       cx="97.352043"
       cy="238.11143"
       rx="3.4395835"
       ry="3.3072894"
       id="ellipse2778"
       style="opacity:0.970867;fill:#c42d18;fill-opacity:1;stroke:none;stroke-width:3;stroke-linecap:round;stroke-linejoin:round;stroke-miterlimit:4;stroke-dasharray:none;stroke-dashoffset:0;stroke-opacity:1" />
    <ellipse
       transform="translate(-99.997874,174.63857)"
       style="opacity:0.970867;fill:#c42d18;fill-opacity:1;stroke:none;stroke-width:3;stroke-linecap:round;stroke-linejoin:round;stroke-miterlimit:4;stroke-dasharray:none;stroke-dashoffset:0;stroke-opacity:1"
       id="ellipse2780"
       ry="3.3072894"
       rx="3.4395835"
       cy="216.94476"
       cx="134.39371" />
    <ellipse
       transform="translate(-99.997874,174.63857)"
       cx="237.58121"
       cy="195.77809"
       rx="3.4395835"
       ry="3.3072894"
       id="ellipse2782"
       style="opacity:0.970867;fill:#c42d18;fill-opacity:1;stroke:none;stroke-width:3;stroke-linecap:round;stroke-linejoin:round;stroke-miterlimit:4;stroke-dasharray:none;stroke-dashoffset:0;stroke-opacity:1" />
    <rect
       transform="translate(-99.997874,174.63857)"
       y="291.02811"
       x="131.74788"
       height="95.25"
       width="216.95833"
       id="rect2856"
       style="display:inline;fill:#ffffff;fill-opacity:1;stroke:#000600;stroke-width:3;stroke-linecap:round;stroke-linejoin:round;stroke-miterlimit:4;stroke-dasharray:none;stroke-dashoffset:0;stroke-opacity:1" />
    <text
       transform="translate(-99.997874,174.63857)"
       id="text2860"
       y="316.3645"
       x="221.41284"
       style="font-size:17.7572px;line-height:1.25;font-family:'Times New Roman';-inkscape-font-specification:'Times New Roman, ';letter-spacing:0px;word-spacing:0px;display:inline;stroke-width:0.443931"
       xml:space="preserve"><tspan
         style="stroke-width:0.443931"
         y="316.3645"
         x="221.41284"
         id="tspan2858"
         sodipodi:role="line">Exact</tspan></text>
    <text
       xml:space="preserve"
       style="font-size:17.6172px;line-height:1.25;font-family:'Times New Roman';-inkscape-font-specification:'Times New Roman, ';letter-spacing:0px;word-spacing:0px;display:inline;stroke-width:0.440428"
       x="52.236759"
       y="517.2594"
       id="text2864"><tspan
         id="tspan2862"
         sodipodi:role="line"
         x="52.236759"
         y="517.2594"
         style="stroke-width:0.440428">Quantized Soln</tspan></text>
    <text
       transform="translate(-99.997874,174.63857)"
       id="text2868"
       y="372.15262"
       x="160.23489"
       style="font-size:17.6172px;line-height:1.25;font-family:'Times New Roman';-inkscape-font-specification:'Times New Roman, ';letter-spacing:0px;word-spacing:0px;display:inline;stroke-width:0.440428"
       xml:space="preserve"><tspan
         style="stroke-width:0.440428"
         y="372.15262"
         x="160.23489"
         sodipodi:role="line"
         id="tspan2866">Solution times</tspan></text>
    <path
       transform="translate(-99.997874,174.63857)"
       sodipodi:nodetypes="cc"
       style="display:inline;fill:none;stroke:#42dc3c;stroke-width:2;stroke-linecap:round;stroke-linejoin:miter;stroke-miterlimit:4;stroke-dasharray:none;stroke-opacity:1"
       d="M 332.8312,367.22808 H 269.33121"
       id="path2870" />
    <path
       transform="translate(-99.997874,174.63857)"
       id="path2872"
       d="M 332.83121,338.6531 H 269.33122"
       style="display:inline;fill:none;stroke:#c42d18;stroke-width:3;stroke-linecap:round;stroke-linejoin:miter;stroke-miterlimit:4;stroke-dasharray:none;stroke-opacity:0.972549"
       sodipodi:nodetypes="cc" />
    <path
       transform="translate(-99.997874,174.63857)"
       sodipodi:nodetypes="cc"
       style="display:inline;fill:#b6b6b6;fill-opacity:1;stroke:#b6b6b6;stroke-width:3;stroke-linecap:round;stroke-linejoin:miter;stroke-miterlimit:4;stroke-dasharray:3,6;stroke-dashoffset:0;stroke-opacity:1"
       d="M 332.83121,312.19477 H 269.33122"
       id="path2874" />
    <ellipse
       transform="translate(-99.997874,174.63857)"
       cx="301.08121"
       cy="338.65311"
       rx="3.4395835"
       ry="3.3072894"
       id="ellipse2876"
       style="opacity:0.970867;fill:#c42d18;fill-opacity:1;stroke:none;stroke-width:3;stroke-linecap:round;stroke-linejoin:round;stroke-miterlimit:4;stroke-dasharray:none;stroke-dashoffset:0;stroke-opacity:1" />
  </g>
  <g
     transform="translate(224.7075,-338.25)"
     inkscape:groupmode="layer"
     id="layer3"
     inkscape:label="ses">
    <g
       inkscape:groupmode="layer"
       id="layer4"
       inkscape:label="qss"
       transform="translate(-99.997875,174.63857)" />
  </g>
</svg>
