<?xml version="1.0" encoding="UTF-8" standalone="no"?>
<svg
   xmlns:dc="http://purl.org/dc/elements/1.1/"
   xmlns:cc="http://creativecommons.org/ns#"
   xmlns:rdf="http://www.w3.org/1999/02/22-rdf-syntax-ns#"
   xmlns:svg="http://www.w3.org/2000/svg"
   xmlns="http://www.w3.org/2000/svg"
   xmlns:xlink="http://www.w3.org/1999/xlink"
   xmlns:sodipodi="http://sodipodi.sourceforge.net/DTD/sodipodi-0.dtd"
   xmlns:inkscape="http://www.inkscape.org/namespaces/inkscape"
   sodipodi:docname="ses_simple.svg"
   inkscape:version="1.0 (4035a4fb49, 2020-05-01)"
   id="svg8"
   version="1.1"
   viewBox="0 0 453.23572 308.6662"
   height="308.6662mm"
   width="453.23572mm">
  <defs
     id="defs2">
    <marker
       inkscape:isstock="true"
       style="overflow:visible"
       id="marker2446"
       refX="0"
       refY="0"
       orient="auto"
       inkscape:stockid="Arrow2Mend">
      <path
         transform="scale(-0.6)"
         d="M 8.7185878,4.0337352 -2.2072895,0.01601326 8.7185884,-4.0017078 c -1.7454984,2.3720609 -1.7354408,5.6174519 -6e-7,8.035443 z"
         style="fill:#000000;fill-opacity:1;fill-rule:evenodd;stroke:#000000;stroke-width:0.625;stroke-linejoin:round;stroke-opacity:1"
         id="path2444" />
    </marker>
    <marker
       inkscape:stockid="Arrow2Mend"
       orient="auto"
       refY="0"
       refX="0"
       id="marker2436"
       style="overflow:visible"
       inkscape:isstock="true">
      <path
         id="path2434"
         style="fill:#000000;fill-opacity:1;fill-rule:evenodd;stroke:#000000;stroke-width:0.625;stroke-linejoin:round;stroke-opacity:1"
         d="M 8.7185878,4.0337352 -2.2072895,0.01601326 8.7185884,-4.0017078 c -1.7454984,2.3720609 -1.7354408,5.6174519 -6e-7,8.035443 z"
         transform="scale(-0.6)" />
    </marker>
    <marker
       inkscape:isstock="true"
       style="overflow:visible"
       id="marker2426"
       refX="0"
       refY="0"
       orient="auto"
       inkscape:stockid="Arrow2Mstart">
      <path
         transform="scale(0.6)"
         d="M 8.7185878,4.0337352 -2.2072895,0.01601326 8.7185884,-4.0017078 c -1.7454984,2.3720609 -1.7354408,5.6174519 -6e-7,8.035443 z"
         style="fill:#000000;fill-opacity:1;fill-rule:evenodd;stroke:#000000;stroke-width:0.625;stroke-linejoin:round;stroke-opacity:1"
         id="path2424" />
    </marker>
    <marker
       inkscape:stockid="Arrow2Mstart"
       orient="auto"
       refY="0"
       refX="0"
       id="marker2416"
       style="overflow:visible"
       inkscape:isstock="true">
      <path
         id="path2414"
         style="fill:#000000;fill-opacity:1;fill-rule:evenodd;stroke:#000000;stroke-width:0.625;stroke-linejoin:round;stroke-opacity:1"
         d="M 8.7185878,4.0337352 -2.2072895,0.01601326 8.7185884,-4.0017078 c -1.7454984,2.3720609 -1.7354408,5.6174519 -6e-7,8.035443 z"
         transform="scale(0.6)" />
    </marker>
    <marker
       inkscape:collect="always"
       inkscape:stockid="Arrow2Mend"
       orient="auto"
       refY="0"
       refX="0"
       id="marker1822"
       style="overflow:visible"
       inkscape:isstock="true">
      <path
         id="path1820"
         style="fill:#000000;fill-opacity:1;fill-rule:evenodd;stroke:#000000;stroke-width:0.625;stroke-linejoin:round;stroke-opacity:1"
         d="M 8.7185878,4.0337352 -2.2072895,0.01601326 8.7185884,-4.0017078 c -1.7454984,2.3720609 -1.7354408,5.6174519 -6e-7,8.035443 z"
         transform="scale(-0.6)" />
    </marker>
    <marker
       inkscape:collect="always"
       inkscape:stockid="Arrow2Mstart"
       orient="auto"
       refY="0"
       refX="0"
       id="marker1812"
       style="overflow:visible"
       inkscape:isstock="true">
      <path
         id="path1810"
         style="fill:#000000;fill-opacity:1;fill-rule:evenodd;stroke:#000000;stroke-width:0.625;stroke-linejoin:round;stroke-opacity:1"
         d="M 8.7185878,4.0337352 -2.2072895,0.01601326 8.7185884,-4.0017078 c -1.7454984,2.3720609 -1.7354408,5.6174519 -6e-7,8.035443 z"
         transform="scale(0.6)" />
    </marker>
    <marker
       inkscape:isstock="true"
       style="overflow:visible"
       id="Arrow2Lend"
       refX="0"
       refY="0"
       orient="auto"
       inkscape:stockid="Arrow2Lend">
      <path
         transform="matrix(-1.1,0,0,-1.1,-1.1,0)"
         d="M 8.7185878,4.0337352 -2.2072895,0.01601326 8.7185884,-4.0017078 c -1.7454984,2.3720609 -1.7354408,5.6174519 -6e-7,8.035443 z"
         style="fill:#000000;fill-opacity:1;fill-rule:evenodd;stroke:#000000;stroke-width:0.625;stroke-linejoin:round;stroke-opacity:1"
         id="path1343" />
    </marker>
    <marker
       inkscape:isstock="true"
       style="overflow:visible"
       id="Arrow2Lstart"
       refX="0"
       refY="0"
       orient="auto"
       inkscape:stockid="Arrow2Lstart">
      <path
         transform="matrix(1.1,0,0,1.1,1.1,0)"
         d="M 8.7185878,4.0337352 -2.2072895,0.01601326 8.7185884,-4.0017078 c -1.7454984,2.3720609 -1.7354408,5.6174519 -6e-7,8.035443 z"
         style="fill:#000000;fill-opacity:1;fill-rule:evenodd;stroke:#000000;stroke-width:0.625;stroke-linejoin:round;stroke-opacity:1"
         id="path1340" />
    </marker>
    <g
       id="g187">
      <symbol
         id="symbol2510"
         overflow="visible">
        <path
           id="path2445"
           d=""
           style="stroke:none" />
      </symbol>
      <symbol
         id="symbol2934"
         overflow="visible">
        <path
           id="path6261"
           d="m 4.40625,-6.953125 c -0.0625,-0.140625 -0.09375,-0.1875 -0.265625,-0.1875 -0.15625,0 -0.1875,0.046875 -0.25,0.1875 l -3.375,6.75 C 0.46875,-0.109375 0.46875,-0.09375 0.46875,-0.078125 0.46875,0 0.53125,0 0.6875,0 h 6.921875 c 0.15625,0 0.21875,0 0.21875,-0.078125 0,-0.015625 0,-0.03125 -0.046875,-0.125 z m -0.578125,0.8125 2.6875,5.390625 h -5.375 z m 0,0"
           style="stroke:none" />
      </symbol>
      <symbol
         id="symbol6765"
         overflow="visible">
        <path
           id="path765"
           d=""
           style="stroke:none" />
      </symbol>
      <symbol
         id="symbol100"
         overflow="visible">
        <path
           id="path6013"
           d="M 4.359375,-0.0625 C 5.90625,-0.640625 7.375,-2.421875 7.375,-4.34375 c 0,-1.609375 -1.0625,-2.6875 -2.546875,-2.6875 -2.140625,0 -4.34375,2.265625 -4.34375,4.59375 0,1.65625 1.125,2.65625 2.5625,2.65625 0.25,0 0.578125,-0.046875 0.96875,-0.15625 -0.03125,0.625 -0.03125,0.640625 -0.03125,0.78125 0,0.3125 0,1.09375 0.828125,1.09375 1.171875,0 1.65625,-1.828125 1.65625,-1.9375 0,-0.0625 -0.0625,-0.09375 -0.109375,-0.09375 -0.078125,0 -0.09375,0.046875 -0.125,0.109375 C 6,0.71875 5.421875,0.96875 5.078125,0.96875 c -0.46875,0 -0.609375,-0.265625 -0.71875,-1.03125 z m -1.875,-0.078125 c -0.78125,-0.3125 -1.125,-1.078125 -1.125,-1.984375 0,-0.6875 0.265625,-2.109375 1.015625,-3.171875 C 3.109375,-6.3125 4.046875,-6.78125 4.78125,-6.78125 5.765625,-6.78125 6.5,-6 6.5,-4.671875 c 0,1 -0.515625,3.34375 -2.1875,4.265625 -0.046875,-0.34375 -0.140625,-1.0625 -0.875,-1.0625 -0.53125,0 -1.015625,0.484375 -1.015625,1.015625 0,0.1875 0.0625,0.296875 0.0625,0.3125 z M 3.09375,-0.03125 c -0.140625,0 -0.453125,0 -0.453125,-0.421875 0,-0.40625 0.375,-0.796875 0.796875,-0.796875 0.421875,0 0.609375,0.234375 0.609375,0.84375 0,0.140625 -0.015625,0.15625 -0.109375,0.203125 C 3.671875,-0.09375 3.375,-0.03125 3.09375,-0.03125 Z m 0,0"
           style="stroke:none" />
      </symbol>
    </g>
    <g
       id="g9821">
      <symbol
         id="symbol299"
         overflow="visible">
        <path
           id="path2335"
           d=""
           style="stroke:none" />
      </symbol>
      <symbol
         id="symbol6937"
         overflow="visible">
        <path
           id="path488"
           d="m 4.40625,-6.953125 c -0.0625,-0.140625 -0.09375,-0.1875 -0.265625,-0.1875 -0.15625,0 -0.1875,0.046875 -0.25,0.1875 l -3.375,6.75 C 0.46875,-0.109375 0.46875,-0.09375 0.46875,-0.078125 0.46875,0 0.53125,0 0.6875,0 h 6.921875 c 0.15625,0 0.21875,0 0.21875,-0.078125 0,-0.015625 0,-0.03125 -0.046875,-0.125 z m -0.578125,0.8125 2.6875,5.390625 h -5.375 z m 0,0"
           style="stroke:none" />
      </symbol>
      <symbol
         id="symbol1599"
         overflow="visible">
        <path
           id="path880"
           d=""
           style="stroke:none" />
      </symbol>
      <symbol
         id="symbol1234"
         overflow="visible">
        <path
           id="path1498"
           d="m 2.046875,-3.984375 h 0.9375 c 0.203125,0 0.3125,0 0.3125,-0.203125 0,-0.109375 -0.109375,-0.109375 -0.28125,-0.109375 h -0.875 C 2.5,-5.71875 2.546875,-5.90625 2.546875,-5.96875 c 0,-0.171875 -0.125,-0.265625 -0.296875,-0.265625 -0.03125,0 -0.3125,0 -0.390625,0.359375 L 1.46875,-4.296875 h -0.9375 c -0.203125,0 -0.296875,0 -0.296875,0.1875 0,0.125 0.078125,0.125 0.28125,0.125 h 0.875 C 0.671875,-1.15625 0.625,-0.984375 0.625,-0.8125 0.625,-0.265625 1,0.109375 1.546875,0.109375 2.5625,0.109375 3.125,-1.34375 3.125,-1.421875 3.125,-1.53125 3.046875,-1.53125 3.015625,-1.53125 2.921875,-1.53125 2.90625,-1.5 2.859375,-1.390625 2.4375,-0.34375 1.90625,-0.109375 1.5625,-0.109375 c -0.203125,0 -0.3125,-0.125 -0.3125,-0.453125 0,-0.25 0.03125,-0.3125 0.0625,-0.484375 z m 0,0"
           style="stroke:none" />
      </symbol>
    </g>
  </defs>
  <sodipodi:namedview
     lock-margins="true"
     fit-margin-left="10"
     fit-margin-bottom="10"
     fit-margin-right="10"
     fit-margin-top="10"
     inkscape:lockguides="true"
     inkscape:window-maximized="1"
     inkscape:window-y="-8"
     inkscape:window-x="-8"
     inkscape:window-height="961"
     inkscape:window-width="1280"
     inkscape:snap-center="true"
     inkscape:snap-object-midpoints="true"
     showborder="true"
     inkscape:showpageshadow="true"
     showgrid="true"
     inkscape:document-rotation="0"
     inkscape:current-layer="layer2"
     inkscape:document-units="mm"
     inkscape:cy="682.25064"
     inkscape:cx="1173.4034"
     inkscape:zoom="0.35"
     inkscape:pageshadow="2"
     inkscape:pageopacity="0.0"
     borderopacity="1.0"
     bordercolor="#666666"
     pagecolor="#ffffff"
     id="base">
    <inkscape:grid
       originy="11"
       originx="177.15241"
       visible="false"
       id="grid10"
       type="xygrid" />
  </sodipodi:namedview>
  <metadata
     id="metadata5">
    <rdf:RDF>
      <cc:Work
         rdf:about="">
        <dc:format>image/svg+xml</dc:format>
        <dc:type
           rdf:resource="http://purl.org/dc/dcmitype/StillImage" />
        <dc:title></dc:title>
      </cc:Work>
    </rdf:RDF>
  </metadata>
  <g
     transform="translate(177.15241,11)"
     id="layer1"
     inkscape:groupmode="layer"
     inkscape:label="Layer 1" />
  <g
     transform="translate(177.15241,11)"
     style="display:inline"
     inkscape:label="chart"
     id="layer2"
     inkscape:groupmode="layer">
    <text
       id="text2227"
       y="-63.5"
       x="-127"
       style="font-style:normal;font-variant:normal;font-weight:normal;font-stretch:normal;font-size:10.5833px;line-height:1.25;font-family:'Times New Roman';-inkscape-font-specification:'Times New Roman, ';letter-spacing:0px;word-spacing:0px;fill:#000000;fill-opacity:1;stroke:none;stroke-width:0.264583"
       xml:space="preserve"><tspan
         style="font-style:normal;font-variant:normal;font-weight:normal;font-stretch:normal;font-family:'Times New Roman';-inkscape-font-specification:'Times New Roman, ';stroke-width:0.264583"
         y="-63.5"
         x="-127"
         id="tspan2225"
         sodipodi:role="line" /></text>
    <path
       sodipodi:nodetypes="cc"
       style="display:inline;fill:none;stroke:#000000;stroke-width:0.264583px;stroke-linecap:butt;stroke-linejoin:miter;stroke-opacity:1"
       d="M -116.41667,0 V 232.83333"
       id="path858" />
    <path
       id="path860"
       d="M -95.25,1.6666667e-6 V 232.83333"
       style="display:inline;fill:none;stroke:#000000;stroke-width:0.264583px;stroke-linecap:butt;stroke-linejoin:miter;stroke-opacity:1"
       sodipodi:nodetypes="cc" />
    <path
       sodipodi:nodetypes="cc"
       style="display:inline;fill:none;stroke:#000000;stroke-width:0.264583px;stroke-linecap:butt;stroke-linejoin:miter;stroke-opacity:1"
       d="M -74.083333,2.5e-6 V 232.83333"
       id="path862" />
    <path
       id="path864"
       d="M -52.916667,2.9166667e-6 V 232.83333"
       style="display:inline;fill:none;stroke:#000000;stroke-width:0.264583px;stroke-linecap:butt;stroke-linejoin:miter;stroke-opacity:1"
       sodipodi:nodetypes="cc" />
    <path
       sodipodi:nodetypes="cc"
       style="display:inline;fill:none;stroke:#000000;stroke-width:0.264583px;stroke-linecap:butt;stroke-linejoin:miter;stroke-opacity:1"
       d="M -31.75,3.125e-6 V 232.83333"
       id="path866" />
    <path
       id="path868"
       d="M -10.583333,3.2291667e-6 V 232.83333"
       style="display:inline;fill:none;stroke:#000000;stroke-width:0.264583px;stroke-linecap:butt;stroke-linejoin:miter;stroke-opacity:1"
       sodipodi:nodetypes="cc" />
    <path
       id="path870"
       d="M 10.583333,0 V 232.83333"
       style="display:inline;fill:none;stroke:#000000;stroke-width:0.264583px;stroke-linecap:butt;stroke-linejoin:miter;stroke-opacity:1"
       sodipodi:nodetypes="cc" />
    <path
       sodipodi:nodetypes="cc"
       style="display:inline;fill:none;stroke:#000000;stroke-width:0.264583px;stroke-linecap:butt;stroke-linejoin:miter;stroke-opacity:1"
       d="M 31.750003,1.6666667e-6 V 232.83333"
       id="path872" />
    <path
       id="path874"
       d="M 52.91667,2.5e-6 V 232.83333"
       style="display:inline;fill:none;stroke:#000000;stroke-width:0.264583px;stroke-linecap:butt;stroke-linejoin:miter;stroke-opacity:1"
       sodipodi:nodetypes="cc" />
    <path
       sodipodi:nodetypes="cc"
       style="display:inline;fill:none;stroke:#000000;stroke-width:0.264583px;stroke-linecap:butt;stroke-linejoin:miter;stroke-opacity:1"
       d="M 74.083336,2.9166667e-6 V 232.83333"
       id="path876" />
    <path
       id="path878"
       d="M 95.250003,3.125e-6 V 232.83333"
       style="display:inline;fill:none;stroke:#000000;stroke-width:0.264583px;stroke-linecap:butt;stroke-linejoin:miter;stroke-opacity:1"
       sodipodi:nodetypes="cc" />
    <path
       sodipodi:nodetypes="cc"
       style="display:inline;fill:none;stroke:#000000;stroke-width:0.264583px;stroke-linecap:butt;stroke-linejoin:miter;stroke-opacity:1"
       d="M 116.41667,3.2291667e-6 V 232.83333"
       id="path1255" />
    <path
       sodipodi:nodetypes="cc"
       style="display:inline;fill:none;stroke:#000000;stroke-width:0.264583px;stroke-linecap:butt;stroke-linejoin:miter;stroke-opacity:1"
       d="M 137.58333,0 V 232.83333"
       id="path882" />
    <path
       id="path884"
       d="M 158.75,1.6666667e-6 V 232.83333"
       style="display:inline;fill:none;stroke:#000000;stroke-width:0.264583px;stroke-linecap:butt;stroke-linejoin:miter;stroke-opacity:1"
       sodipodi:nodetypes="cc" />
    <path
       sodipodi:nodetypes="cc"
       style="display:inline;fill:none;stroke:#000000;stroke-width:0.264583px;stroke-linecap:butt;stroke-linejoin:miter;stroke-opacity:1"
       d="M 179.91667,2.5e-6 V 232.83333"
       id="path886" />
    <path
       id="path888"
       d="M 201.08334,2.9166667e-6 V 232.83333"
       style="display:inline;fill:none;stroke:#000000;stroke-width:0.264583px;stroke-linecap:butt;stroke-linejoin:miter;stroke-opacity:1"
       sodipodi:nodetypes="cc" />
    <path
       sodipodi:nodetypes="cc"
       style="display:inline;fill:none;stroke:#000000;stroke-width:0.264583px;stroke-linecap:butt;stroke-linejoin:miter;stroke-opacity:1"
       d="M 222.25,3.125e-6 V 232.83333"
       id="path890" />
    <path
       id="path892"
       d="M 243.41667,3.2291667e-6 V 232.83333"
       style="display:inline;fill:none;stroke:#000000;stroke-width:0.264583px;stroke-linecap:butt;stroke-linejoin:miter;stroke-opacity:1"
       sodipodi:nodetypes="cc" />
    <path
       style="display:inline;fill:none;stroke:#000000;stroke-width:0.8;stroke-linecap:butt;stroke-linejoin:miter;stroke-miterlimit:4;stroke-dasharray:none;stroke-opacity:1;marker-start:url(#marker1812);marker-end:url(#marker1822)"
       d="m 181.23958,248.70832 h 18.52084"
       id="path1808" />
    <g
       transform="matrix(2.4263089,0,0,2.4263089,-50.538234,34.958618)"
       style="display:inline;fill:#000000;fill-opacity:1"
       id="g1204">
      <g
         inkscape:label=""
         transform="translate(2.0390623,22.080724)"
         id="g1277">
        <g
           id="g1118">
          <g
             id="g8851"
             style="fill:#000000;fill-opacity:1">
            <use
               height="100%"
               width="100%"
               id="use4932"
               y="81.962997"
               x="91.925003"
               xlink:href="#symbol6937" />
          </g>
          <g
             id="g7987"
             style="fill:#000000;fill-opacity:1">
            <use
               height="100%"
               width="100%"
               id="use8610"
               y="81.962997"
               x="100.227"
               xlink:href="#symbol1234" />
          </g>
        </g>
      </g>
    </g>
    <path
       id="path1981"
       d="m 179.91667,238.125 v 23.8125"
       style="display:inline;fill:none;stroke:#000000;stroke-width:0.8;stroke-linecap:round;stroke-linejoin:miter;stroke-miterlimit:4;stroke-dasharray:none;stroke-opacity:1" />
    <path
       style="display:inline;fill:none;stroke:#000000;stroke-width:0.8;stroke-linecap:round;stroke-linejoin:miter;stroke-miterlimit:4;stroke-dasharray:none;stroke-opacity:1"
       d="m 201.08333,238.125 v 23.8125"
       id="path1983" />
    <text
       transform="rotate(-90)"
       id="text2231"
       y="-150.71497"
       x="-159.60526"
       style="font-size:24.271px;line-height:1.25;font-family:'Times New Roman';-inkscape-font-specification:'Times New Roman, ';letter-spacing:0px;word-spacing:0px;display:inline;stroke-width:0.606775"
       xml:space="preserve"><tspan
         style="stroke-width:0.606775"
         y="-150.71497"
         x="-159.60526"
         id="tspan2229"
         sodipodi:role="line">Output</tspan></text>
    <text
       xml:space="preserve"
       style="font-size:24.271px;line-height:1.25;font-family:'Times New Roman';-inkscape-font-specification:'Times New Roman, ';letter-spacing:0px;word-spacing:0px;display:inline;stroke-width:0.606775"
       x="10.782007"
       y="263.31854"
       id="text2235"><tspan
         sodipodi:role="line"
         id="tspan2233"
         x="10.782007"
         y="263.31854"
         style="stroke-width:0.606775">Time</tspan></text>
    <path
       sodipodi:nodetypes="ccccccsccc"
       id="path1186"
       d="m -137.58333,190.5 h 63.490394 c 12.0934,-40.40669 24.18691,-66.94649 36.28029,-86.5884 12.09349,-19.641947 24.18687,-32.495297 36.2802494,-42.110877 12.0934806,-9.61549 24.1868606,-15.90778 36.2802506,-20.6149 12.09348,-4.70722 24.18686,-7.78755 36.28034,-10.09191 12.09338,-2.30446 24.18677,-3.81235 36.280256,-4.94044 12.09338,-1.12808 24.18676,-1.86626 36.27995,-2.41857 12.09418,-0.55221 24.18736,-0.91355 36.28054,-0.76572 l 84.65393,-0.98612"
       style="fill:none;stroke:#b6b6b6;stroke-width:3;stroke-linecap:round;stroke-linejoin:round;stroke-miterlimit:4;stroke-dasharray:3, 6;stroke-dashoffset:0;stroke-opacity:1" />
    <path
       style="display:inline;fill:none;stroke:#42dc3c;stroke-width:2;stroke-linecap:butt;stroke-linejoin:miter;stroke-miterlimit:4;stroke-dasharray:none;stroke-opacity:1"
       d="M 343.41454,58.194762 V -174.63857"
       id="path2606"
       transform="translate(-99.997874,174.63857)" />
    <path
       id="path2608"
       d="M 322.24787,58.194763 V -174.63857"
       style="display:inline;fill:none;stroke:#42dc3c;stroke-width:2;stroke-linecap:butt;stroke-linejoin:miter;stroke-miterlimit:4;stroke-dasharray:none;stroke-opacity:1"
       transform="translate(-99.997874,174.63857)" />
    <path
       id="path2610"
       d="M 301.08121,58.194762 V -174.63857"
       style="display:inline;fill:none;stroke:#42dc3c;stroke-width:2;stroke-linecap:butt;stroke-linejoin:miter;stroke-miterlimit:4;stroke-dasharray:none;stroke-opacity:1"
       transform="translate(-99.997874,174.63857)" />
    <path
       style="display:inline;fill:none;stroke:#42dc3c;stroke-width:2;stroke-linecap:butt;stroke-linejoin:miter;stroke-miterlimit:4;stroke-dasharray:none;stroke-opacity:1"
       d="M 279.91454,58.194763 V -174.63857"
       id="path2612"
       transform="translate(-99.997874,174.63857)" />
    <path
       id="path2614"
       d="M 258.74787,58.194762 V -174.63857"
       style="display:inline;fill:none;stroke:#42dc3c;stroke-width:2;stroke-linecap:butt;stroke-linejoin:miter;stroke-miterlimit:4;stroke-dasharray:none;stroke-opacity:1"
       transform="translate(-99.997874,174.63857)" />
    <path
       style="display:inline;fill:none;stroke:#42dc3c;stroke-width:2;stroke-linecap:butt;stroke-linejoin:miter;stroke-miterlimit:4;stroke-dasharray:none;stroke-opacity:1"
       d="M 237.5812,58.194763 V -174.63857"
       id="path2616"
       transform="translate(-99.997874,174.63857)" />
    <path
       style="display:inline;fill:none;stroke:#42dc3c;stroke-width:2;stroke-linecap:butt;stroke-linejoin:miter;stroke-miterlimit:4;stroke-dasharray:none;stroke-opacity:1"
       d="M 216.41454,58.194762 V -174.63857"
       id="path2618"
       transform="translate(-99.997874,174.63857)" />
    <path
       id="path2620"
       d="M 195.24787,58.194763 V -174.63857"
       style="display:inline;fill:none;stroke:#42dc3c;stroke-width:2;stroke-linecap:butt;stroke-linejoin:miter;stroke-miterlimit:4;stroke-dasharray:none;stroke-opacity:1"
       transform="translate(-99.997874,174.63857)" />
    <path
       id="path2622"
       d="M 174.08121,58.194762 V -174.63857"
       style="display:inline;fill:none;stroke:#42dc3c;stroke-width:2;stroke-linecap:butt;stroke-linejoin:miter;stroke-miterlimit:4;stroke-dasharray:none;stroke-opacity:1"
       transform="translate(-99.997874,174.63857)" />
    <path
       style="display:inline;fill:none;stroke:#42dc3c;stroke-width:2;stroke-linecap:butt;stroke-linejoin:miter;stroke-miterlimit:4;stroke-dasharray:none;stroke-opacity:1"
       d="M 152.91454,58.194763 V -174.63857"
       id="path2624"
       transform="translate(-99.997874,174.63857)" />
    <path
       style="display:inline;fill:none;stroke:#42dc3c;stroke-width:2;stroke-linecap:butt;stroke-linejoin:miter;stroke-miterlimit:4;stroke-dasharray:none;stroke-opacity:1"
       d="M 131.74788,58.194762 V -174.63857"
       id="path2626"
       transform="translate(-99.997874,174.63857)" />
    <path
       id="path2628"
       d="M 110.58121,58.194763 V -174.63857"
       style="display:inline;fill:none;stroke:#42dc3c;stroke-width:2;stroke-linecap:butt;stroke-linejoin:miter;stroke-miterlimit:4;stroke-dasharray:none;stroke-opacity:1"
       transform="translate(-99.997874,174.63857)" />
    <path
       style="display:inline;fill:none;stroke:#42dc3c;stroke-width:2;stroke-linecap:butt;stroke-linejoin:miter;stroke-miterlimit:4;stroke-dasharray:none;stroke-opacity:1"
       d="M 89.414542,58.194762 V -174.63857"
       id="path2630"
       transform="translate(-99.997874,174.63857)" />
    <path
       id="path2632"
       d="M 68.247872,58.194763 V -174.63857"
       style="display:inline;fill:none;stroke:#42dc3c;stroke-width:2;stroke-linecap:butt;stroke-linejoin:miter;stroke-miterlimit:4;stroke-dasharray:none;stroke-opacity:1"
       transform="translate(-99.997874,174.63857)" />
    <path
       id="path2634"
       d="M 47.081212,58.194762 V -174.63857"
       style="display:inline;fill:none;stroke:#42dc3c;stroke-width:2;stroke-linecap:butt;stroke-linejoin:miter;stroke-miterlimit:4;stroke-dasharray:none;stroke-opacity:1"
       transform="translate(-99.997874,174.63857)" />
    <path
       style="display:inline;fill:none;stroke:#42dc3c;stroke-width:2;stroke-linecap:butt;stroke-linejoin:miter;stroke-miterlimit:4;stroke-dasharray:none;stroke-opacity:1"
       d="M 25.914542,58.194763 V -174.63857"
       id="path2636"
       transform="translate(-99.997874,174.63857)" />
    <path
       style="display:inline;fill:none;stroke:#42dc3c;stroke-width:2;stroke-linecap:butt;stroke-linejoin:miter;stroke-miterlimit:4;stroke-dasharray:none;stroke-opacity:1"
       d="M 4.7478783,58.194762 V -174.63857"
       id="path2638"
       transform="translate(-99.997874,174.63857)" />
    <path
       id="path2640"
       d="M -16.418792,58.194763 V -174.63857"
       style="display:inline;fill:none;stroke:#42dc3c;stroke-width:2;stroke-linecap:butt;stroke-linejoin:miter;stroke-miterlimit:4;stroke-dasharray:none;stroke-opacity:1"
       transform="translate(-99.997874,174.63857)" />
    <path
       sodipodi:nodetypes="ccccccccccccccccccccccccccccc"
       id="path2602"
       d="M -37.585458,15.86143 H -16.418791 4.7478753 25.914542 47.081208 v -58.208333 h 21.166667 v -39.6875 H 89.414542 V -105.8469 h 21.166668 v -17.19792 h 21.16666 v -9.26042 h 21.16667 v -7.9375 h 21.16667 v -5.29166 h 21.16666 v -2.64584 h 21.16667 v -3.175 h 21.16667 v -0.79375 h 21.16666 l 0.26459,-0.52917 20.90208,1e-5 v -0.79375 h 84.66666"
       style="fill:none;stroke:#5152cc;stroke-width:3;stroke-linecap:round;stroke-linejoin:round;stroke-miterlimit:4;stroke-dasharray:none;stroke-opacity:1"
       transform="translate(-99.997874,174.63857)" />
    <ellipse
       style="opacity:0.970867;fill:#5152cc;fill-opacity:1;stroke:none;stroke-width:3;stroke-linecap:round;stroke-linejoin:round;stroke-miterlimit:4;stroke-dasharray:none;stroke-dashoffset:0;stroke-opacity:1"
       id="ellipse2718"
       ry="3.3072894"
       rx="3.4395835"
       cy="15.86143"
       cx="-16.418791"
       transform="translate(-99.997874,174.63857)" />
    <ellipse
       cx="4.7478752"
       cy="15.86143"
       rx="3.4395835"
       ry="3.3072894"
       id="ellipse2720"
       style="opacity:0.970867;fill:#5152cc;fill-opacity:1;stroke:none;stroke-width:3;stroke-linecap:round;stroke-linejoin:round;stroke-miterlimit:4;stroke-dasharray:none;stroke-dashoffset:0;stroke-opacity:1"
       transform="translate(-99.997874,174.63857)" />
    <ellipse
       style="opacity:0.970867;fill:#5152cc;fill-opacity:1;stroke:none;stroke-width:3;stroke-linecap:round;stroke-linejoin:round;stroke-miterlimit:4;stroke-dasharray:none;stroke-dashoffset:0;stroke-opacity:1"
       id="ellipse2722"
       ry="3.3072894"
       rx="3.4395835"
       cy="15.86143"
       cx="25.914541"
       transform="translate(-99.997874,174.63857)" />
    <ellipse
       style="opacity:0.970867;fill:#5152cc;fill-opacity:1;stroke:none;stroke-width:3;stroke-linecap:round;stroke-linejoin:round;stroke-miterlimit:4;stroke-dasharray:none;stroke-dashoffset:0;stroke-opacity:1"
       id="ellipse2726"
       ry="3.3072894"
       rx="3.4395835"
       cy="-42.346905"
       cx="47.081207"
       transform="translate(-99.997874,174.63857)" />
    <ellipse
       style="opacity:0.970867;fill:#5152cc;fill-opacity:1;stroke:none;stroke-width:3;stroke-linecap:round;stroke-linejoin:round;stroke-miterlimit:4;stroke-dasharray:none;stroke-dashoffset:0;stroke-opacity:1"
       id="ellipse2730"
       ry="3.3072894"
       rx="3.4395835"
       cy="-82.034401"
       cx="68.247871"
       transform="translate(-99.997874,174.63857)" />
    <ellipse
       style="opacity:0.970867;fill:#5152cc;fill-opacity:1;stroke:none;stroke-width:3;stroke-linecap:round;stroke-linejoin:round;stroke-miterlimit:4;stroke-dasharray:none;stroke-dashoffset:0;stroke-opacity:1"
       id="ellipse2734"
       ry="3.3072894"
       rx="3.4395835"
       cy="-105.8469"
       cx="89.414543"
       transform="translate(-99.997874,174.63857)" />
    <ellipse
       style="opacity:0.970867;fill:#5152cc;fill-opacity:1;stroke:none;stroke-width:3;stroke-linecap:round;stroke-linejoin:round;stroke-miterlimit:4;stroke-dasharray:none;stroke-dashoffset:0;stroke-opacity:1"
       id="ellipse2738"
       ry="3.3072894"
       rx="3.4395835"
       cy="-123.04482"
       cx="110.58121"
       transform="translate(-99.997874,174.63857)" />
    <ellipse
       style="opacity:0.970867;fill:#5152cc;fill-opacity:1;stroke:none;stroke-width:3;stroke-linecap:round;stroke-linejoin:round;stroke-miterlimit:4;stroke-dasharray:none;stroke-dashoffset:0;stroke-opacity:1"
       id="ellipse2742"
       ry="3.3072894"
       rx="3.4395835"
       cy="-132.30524"
       cx="131.74788"
       transform="translate(-99.997874,174.63857)" />
    <ellipse
       style="opacity:0.970867;fill:#5152cc;fill-opacity:1;stroke:none;stroke-width:3;stroke-linecap:round;stroke-linejoin:round;stroke-miterlimit:4;stroke-dasharray:none;stroke-dashoffset:0;stroke-opacity:1"
       id="ellipse2746"
       ry="3.3072894"
       rx="3.4395835"
       cy="-140.24274"
       cx="152.91454"
       transform="translate(-99.997874,174.63857)" />
    <ellipse
       cx="195.24788"
       cy="-148.18024"
       rx="3.4395835"
       ry="3.3072894"
       id="ellipse2748"
       style="opacity:0.970867;fill:#5152cc;fill-opacity:1;stroke:none;stroke-width:3;stroke-linecap:round;stroke-linejoin:round;stroke-miterlimit:4;stroke-dasharray:none;stroke-dashoffset:0;stroke-opacity:1"
       transform="translate(-99.997874,174.63857)" />
    <ellipse
       style="opacity:0.970867;fill:#5152cc;fill-opacity:1;stroke:none;stroke-width:3;stroke-linecap:round;stroke-linejoin:round;stroke-miterlimit:4;stroke-dasharray:none;stroke-dashoffset:0;stroke-opacity:1"
       id="ellipse2750"
       ry="3.3072894"
       rx="3.4395835"
       cy="-145.53441"
       cx="174.08121"
       transform="translate(-99.997874,174.63857)" />
    <ellipse
       style="opacity:0.970867;fill:#5152cc;fill-opacity:1;stroke:none;stroke-width:3;stroke-linecap:round;stroke-linejoin:round;stroke-miterlimit:4;stroke-dasharray:none;stroke-dashoffset:0;stroke-opacity:1"
       id="ellipse2752"
       ry="3.3072894"
       rx="3.4395835"
       cy="-150.82607"
       cx="216.41454"
       transform="translate(-99.997874,174.63857)" />
    <ellipse
       cx="237.58121"
       cy="-152.14899"
       rx="3.4395835"
       ry="3.3072894"
       id="ellipse2754"
       style="opacity:0.970867;fill:#5152cc;fill-opacity:1;stroke:none;stroke-width:3;stroke-linecap:round;stroke-linejoin:round;stroke-miterlimit:4;stroke-dasharray:none;stroke-dashoffset:0;stroke-opacity:1"
       transform="translate(-99.997874,174.63857)" />
    <ellipse
       style="opacity:0.970867;fill:#5152cc;fill-opacity:1;stroke:none;stroke-width:3;stroke-linecap:round;stroke-linejoin:round;stroke-miterlimit:4;stroke-dasharray:none;stroke-dashoffset:0;stroke-opacity:1"
       id="ellipse2758"
       ry="3.3072894"
       rx="3.4395835"
       cy="22.088678"
       cx="158.74998" />
    <ellipse
       cx="179.91667"
       cy="21.166666"
       rx="3.4395835"
       ry="3.3072894"
       id="ellipse2760"
       style="opacity:0.970867;fill:#5152cc;fill-opacity:1;stroke:none;stroke-width:3;stroke-linecap:round;stroke-linejoin:round;stroke-miterlimit:4;stroke-dasharray:none;stroke-dashoffset:0;stroke-opacity:1" />
    <ellipse
       style="opacity:0.970867;fill:#5152cc;fill-opacity:1;stroke:none;stroke-width:3;stroke-linecap:round;stroke-linejoin:round;stroke-miterlimit:4;stroke-dasharray:none;stroke-dashoffset:0;stroke-opacity:1"
       id="ellipse2762"
       ry="3.3072894"
       rx="3.4395835"
       cy="-153.47191"
       cx="301.08121"
       transform="translate(-99.997874,174.63857)" />
    <ellipse
       cx="322.24786"
       cy="-153.47191"
       rx="3.4395835"
       ry="3.3072894"
       id="ellipse2764"
       style="opacity:0.970867;fill:#5152cc;fill-opacity:1;stroke:none;stroke-width:3;stroke-linecap:round;stroke-linejoin:round;stroke-miterlimit:4;stroke-dasharray:none;stroke-dashoffset:0;stroke-opacity:1"
       transform="translate(-99.997874,174.63857)" />
    <ellipse
       style="opacity:0.970867;fill:#5152cc;fill-opacity:1;stroke:none;stroke-width:3;stroke-linecap:round;stroke-linejoin:round;stroke-miterlimit:4;stroke-dasharray:none;stroke-dashoffset:0;stroke-opacity:1"
       id="ellipse2766"
       ry="3.3072894"
       rx="3.4395835"
       cy="-153.47191"
       cx="343.41455"
       transform="translate(-99.997874,174.63857)" />
    <rect
       y="-58.221909"
       x="131.24786"
       height="95.25"
       width="216.95833"
       id="rect2784"
       style="display:inline;fill:#ffffff;fill-opacity:1;stroke:#000600;stroke-width:3;stroke-linecap:round;stroke-linejoin:round;stroke-miterlimit:4;stroke-dasharray:none;stroke-dashoffset:0;stroke-opacity:1"
       transform="translate(-99.997874,174.63857)" />
    <text
       id="text2813"
       y="-32.88549"
       x="220.91283"
       style="font-size:17.7572px;line-height:1.25;font-family:'Times New Roman';-inkscape-font-specification:'Times New Roman, ';letter-spacing:0px;word-spacing:0px;display:inline;stroke-width:0.443931"
       xml:space="preserve"
       transform="translate(-99.997874,174.63857)"><tspan
         style="stroke-width:0.443931"
         y="-32.88549"
         x="220.91283"
         id="tspan2811"
         sodipodi:role="line">Exact</tspan></text>
    <text
       xml:space="preserve"
       style="font-size:17.6172px;line-height:1.25;font-family:'Times New Roman';-inkscape-font-specification:'Times New Roman, ';letter-spacing:0px;word-spacing:0px;display:inline;stroke-width:0.440428"
       x="152.79295"
       y="-6.6291876"
       id="text2822"
       transform="translate(-99.997874,174.63857)"><tspan
         id="tspan2828"
         sodipodi:role="line"
         x="152.79295"
         y="-6.6291876"
         style="stroke-width:0.440428">Fixed time step </tspan></text>
    <text
       id="text2834"
       y="22.902611"
       x="159.73488"
       style="font-size:17.6172px;line-height:1.25;font-family:'Times New Roman';-inkscape-font-specification:'Times New Roman, ';letter-spacing:0px;word-spacing:0px;display:inline;stroke-width:0.440428"
       xml:space="preserve"
       transform="translate(-99.997874,174.63857)"><tspan
         style="stroke-width:0.440428"
         y="22.902611"
         x="159.73488"
         sodipodi:role="line"
         id="tspan2832">Solution times</tspan></text>
    <path
       sodipodi:nodetypes="cc"
       style="display:inline;fill:none;stroke:#42dc3c;stroke-width:2;stroke-linecap:round;stroke-linejoin:miter;stroke-miterlimit:4;stroke-dasharray:none;stroke-opacity:1"
       d="m 332.33119,17.978092 -63.49999,2e-6"
       id="path2786"
       transform="translate(-99.997874,174.63857)" />
    <path
       id="path2788"
       d="m 332.3312,-10.596905 -63.49999,2e-6"
       style="display:inline;fill:none;stroke:#5657cd;stroke-width:3;stroke-linecap:round;stroke-linejoin:miter;stroke-miterlimit:4;stroke-dasharray:none;stroke-opacity:1"
       sodipodi:nodetypes="cc"
       transform="translate(-99.997874,174.63857)" />
    <path
       sodipodi:nodetypes="cc"
       style="display:inline;fill:#b6b6b6;fill-opacity:1;stroke:#b6b6b6;stroke-width:3;stroke-linecap:round;stroke-linejoin:miter;stroke-miterlimit:4;stroke-dasharray:3, 6;stroke-dashoffset:0;stroke-opacity:1"
       d="m 332.3312,-37.055238 -63.49999,2e-6"
       id="path2790"
       transform="translate(-99.997874,174.63857)" />
    <ellipse
       cx="300.58121"
       cy="-10.596904"
       rx="3.4395835"
       ry="3.3072894"
       id="ellipse2766-1"
       style="opacity:0.970867;fill:#5152cc;fill-opacity:1;stroke:none;stroke-width:3;stroke-linecap:round;stroke-linejoin:round;stroke-miterlimit:4;stroke-dasharray:none;stroke-dashoffset:0;stroke-opacity:1"
       transform="translate(-99.997874,174.63857)" />
    <rect
       y="0"
       x="-137.58333"
       height="232.83333"
       width="402.16666"
       id="rect12"
       style="display:inline;opacity:0.970867;fill:none;fill-opacity:0.972549;stroke:#010100;stroke-width:2;stroke-linecap:round;stroke-linejoin:round;stroke-dashoffset:12" />
  </g>
  <g
     transform="translate(177.15241,11)"
     inkscape:label="ses"
     id="layer3"
     inkscape:groupmode="layer">
    <g
       transform="translate(-99.997875,174.63857)"
       inkscape:label="qss"
       id="layer4"
       inkscape:groupmode="layer" />
  </g>
</svg>
